<svg width="59" height="50" viewBox="0 0 59 50" fill="none" xmlns="http://www.w3.org/2000/svg">
<path fill-rule="evenodd" clip-rule="evenodd" d="M24.5991 28.3737H24.2922C23.7352 28.3737 23.2837 28.6835 23.2837 29.0657V29.1872C23.2837 29.5694 23.7352 29.8793 24.2922 29.8793H24.5991V35.4929L13.7083 49.2329C13.4342 49.5788 13.7991 50 14.3728 50H44.3755C44.9493 50 45.3141 49.5788 45.04 49.2329L34.1827 35.5352V29.8793H34.4895C35.0465 29.8793 35.4981 29.5694 35.4981 29.1872V29.0657C35.4981 28.6835 35.0465 28.3737 34.4895 28.3737H34.1827H24.5991Z" fill="url(#paint0_linear_379_927)"/>
<path fill-rule="evenodd" clip-rule="evenodd" d="M25.1034 29.5333V35.5809L14.1513 49.3983C14.06 49.5135 14.1816 49.6539 14.3728 49.6539H44.3755C44.5668 49.6539 44.6884 49.5135 44.597 49.3983L33.6785 35.6232V29.5333H34.4895C34.768 29.5333 34.9938 29.3783 34.9938 29.1872V29.0657C34.9938 28.8746 34.768 28.7197 34.4895 28.7197H24.2922C24.0137 28.7197 23.788 28.8746 23.788 29.0657V29.1872C23.788 29.3783 24.0137 29.5333 24.2922 29.5333H25.1034ZM34.1827 29.8793H34.4895C35.0465 29.8793 35.4981 29.5694 35.4981 29.1872V29.0657C35.4981 28.6835 35.0465 28.3737 34.4895 28.3737H24.2922C23.7352 28.3737 23.2837 28.6835 23.2837 29.0657V29.1872C23.2837 29.5694 23.7352 29.8793 24.2922 29.8793H24.5991V35.4929L13.7083 49.2329C13.4342 49.5788 13.7991 50 14.3728 50H44.3755C44.9493 50 45.3141 49.5788 45.04 49.2329L34.1827 35.5352V29.8793Z" fill="black"/>
<path d="M13.6154 12.1107C13.6154 10.1997 15.8731 8.65051 18.6581 8.65051H40.0897C42.8747 8.65051 45.1324 10.1997 45.1324 12.1107V21.7993C45.1324 23.7103 42.8747 25.2595 40.0897 25.2595H18.6581C15.8731 25.2595 13.6154 23.7103 13.6154 21.7993V12.1107Z" fill="#09204D"/>
<path fill-rule="evenodd" clip-rule="evenodd" d="M40.0897 8.99653H18.6581C16.1516 8.99653 14.1196 10.3908 14.1196 12.1107V21.7993C14.1196 23.5192 16.1516 24.9135 18.6581 24.9135H40.0897C42.5962 24.9135 44.6282 23.5192 44.6282 21.7993V12.1107C44.6282 10.3908 42.5962 8.99653 40.0897 8.99653ZM18.6581 8.65051C15.8731 8.65051 13.6154 10.1997 13.6154 12.1107V21.7993C13.6154 23.7103 15.8731 25.2595 18.6581 25.2595H40.0897C42.8747 25.2595 45.1324 23.7103 45.1324 21.7993V12.1107C45.1324 10.1997 42.8747 8.65051 40.0897 8.65051H18.6581Z" fill="black"/>
<path d="M29.5 0L59 11.5995L29.5 23.1989L0 11.5995L29.5 0Z" fill="#143F92"/>
<path fill-rule="evenodd" clip-rule="evenodd" d="M29.5 0.398806L1.01425 11.5995L29.5 22.8001L57.9858 11.5995L29.5 0.398806ZM29.5 0L0 11.5995L29.5 23.1989L59 11.5995L29.5 0Z" fill="black"/>
<path d="M31.4888 11.5995C31.4888 12.3532 30.5984 12.9642 29.5 12.9642C28.4016 12.9642 27.5112 12.3532 27.5112 11.5995C27.5112 10.8458 28.4016 10.2349 29.5 10.2349C30.5984 10.2349 31.4888 10.8458 31.4888 11.5995Z" fill="#FFF50F"/>
<path fill-rule="evenodd" clip-rule="evenodd" d="M29.5 12.6181C30.3199 12.6181 30.9845 12.1621 30.9845 11.5995C30.9845 11.0369 30.3199 10.5809 29.5 10.5809C28.6801 10.5809 28.0155 11.0369 28.0155 11.5995C28.0155 12.1621 28.6801 12.6181 29.5 12.6181ZM29.5 12.9642C30.5984 12.9642 31.4888 12.3532 31.4888 11.5995C31.4888 10.8458 30.5984 10.2349 29.5 10.2349C28.4016 10.2349 27.5112 10.8458 27.5112 11.5995C27.5112 12.3532 28.4016 12.9642 29.5 12.9642Z" fill="black"/>
<path fill-rule="evenodd" clip-rule="evenodd" d="M16.3889 17.647L28.1742 12.2817L28.4529 12.5701L16.6677 17.9353L16.3889 17.647Z" fill="black"/>
<path fill-rule="evenodd" clip-rule="evenodd" d="M16.2812 27.0907V17.993H16.7855V27.0907H16.2812Z" fill="black"/>
<path d="M18.27 28.3416C18.27 29.0325 17.4538 29.5925 16.4469 29.5925C15.4401 29.5925 14.6239 29.0325 14.6239 28.3416C14.6239 27.6508 15.4401 27.0907 16.4469 27.0907C17.4538 27.0907 18.27 27.6508 18.27 28.3416Z" fill="#FFF50F"/>
<path fill-rule="evenodd" clip-rule="evenodd" d="M16.4469 29.2465C17.1753 29.2465 17.7657 28.8414 17.7657 28.3416C17.7657 27.8419 17.1753 27.4367 16.4469 27.4367C15.7186 27.4367 15.1282 27.8419 15.1282 28.3416C15.1282 28.8414 15.7186 29.2465 16.4469 29.2465ZM16.4469 29.5925C17.4538 29.5925 18.27 29.0325 18.27 28.3416C18.27 27.6508 17.4538 27.0907 16.4469 27.0907C15.4401 27.0907 14.6239 27.6508 14.6239 28.3416C14.6239 29.0325 15.4401 29.5925 16.4469 29.5925Z" fill="black"/>
<path d="M14.6239 30.2302C14.6239 29.7524 15.1883 29.3651 15.8846 29.3651H17.0093C17.7055 29.3651 18.27 29.7524 18.27 30.2302V32.3666C18.27 32.8443 17.7055 33.2316 17.0093 33.2316H15.8846C15.1883 33.2316 14.6239 32.8443 14.6239 32.3665V30.2302Z" fill="#FFF50F"/>
<path fill-rule="evenodd" clip-rule="evenodd" d="M17.0093 29.7111H15.8846C15.4668 29.7111 15.1282 29.9435 15.1282 30.2302V32.3665C15.1282 32.6532 15.4668 32.8856 15.8846 32.8856H17.0093C17.427 32.8856 17.7657 32.6532 17.7657 32.3666V30.2302C17.7657 29.9435 17.427 29.7111 17.0093 29.7111ZM15.8846 29.3651C15.1883 29.3651 14.6239 29.7524 14.6239 30.2302V32.3665C14.6239 32.8443 15.1883 33.2316 15.8846 33.2316H17.0093C17.7055 33.2316 18.27 32.8443 18.27 32.3666V30.2302C18.27 29.7524 17.7055 29.3651 17.0093 29.3651H15.8846Z" fill="black"/>
<defs>
<linearGradient id="paint0_linear_379_927" x1="29.5" y1="50" x2="29.5" y2="28.3737" gradientUnits="userSpaceOnUse">
<stop stop-color="#087F05"/>
<stop offset="0.661458" stop-color="#087F05"/>
<stop offset="0.747917" stop-color="#3D963B" stop-opacity="0.2899"/>
<stop offset="1" stop-color="#D9D9D9" stop-opacity="0"/>
</linearGradient>
</defs>
</svg>
